<?xml version="1.0" encoding="UTF-8" standalone="no"?>
<!-- Created with Inkscape (http://www.inkscape.org/) -->

<svg
   xmlns:dc="http://purl.org/dc/elements/1.1/"
   xmlns:cc="http://creativecommons.org/ns#"
   xmlns:rdf="http://www.w3.org/1999/02/22-rdf-syntax-ns#"
   xmlns:svg="http://www.w3.org/2000/svg"
   xmlns="http://www.w3.org/2000/svg"
   xmlns:sodipodi="http://sodipodi.sourceforge.net/DTD/sodipodi-0.dtd"
   xmlns:inkscape="http://www.inkscape.org/namespaces/inkscape"
   width="41.473999mm"
   height="23.034mm"
   viewBox="0 0 41.473999 23.034"
   version="1.1"
   id="svg4506"
   inkscape:version="0.92.1 r15371"
   sodipodi:docname="logo.svg">
  <defs
     id="defs4500" />
  <sodipodi:namedview
     id="base"
     pagecolor="#ffffff"
     bordercolor="#666666"
     borderopacity="1.0"
     inkscape:pageopacity="0.0"
     inkscape:pageshadow="2"
     inkscape:zoom="1.979899"
     inkscape:cx="15.930268"
     inkscape:cy="160.29332"
     inkscape:document-units="mm"
     inkscape:current-layer="text4487"
     showgrid="false"
     inkscape:window-width="1920"
     inkscape:window-height="1017"
     inkscape:window-x="-8"
     inkscape:window-y="-8"
     inkscape:window-maximized="1" />
  <metadata
     id="metadata4503">
    <rdf:RDF>
      <cc:Work
         rdf:about="">
        <dc:format>image/svg+xml</dc:format>
        <dc:type
           rdf:resource="http://purl.org/dc/dcmitype/StillImage" />
        <dc:title />
      </cc:Work>
    </rdf:RDF>
  </metadata>
  <g
     inkscape:label="Capa 1"
     inkscape:groupmode="layer"
     id="layer1"
     transform="translate(0,-273.966)">
    <g
       aria-label="Well"
       style="font-style:normal;font-weight:normal;font-size:15.98521042px;line-height:1.25;font-family:sans-serif;letter-spacing:0px;word-spacing:0px;fill:#ffffff;fill-opacity:1;stroke:none;stroke-width:0.39963022"
       id="text4487">
      <path
         d="m 4.6037406,288.03333 q -0.9431274,0 -1.7903436,-0.36766 Q 1.9821661,287.29801 1.3587429,286.67458 0.73531967,286.05116 0.36765983,285.21993 0,284.37271 0,283.42958 v -8.18442 h 3.1331012 v 8.18442 q 0,0.60744 0.4316007,1.03904 0.4316007,0.4316 1.0390387,0.4316 0.607438,0 1.0390387,-0.4316 0.4316007,-0.4316 0.4316007,-1.03904 v -8.18442 h 3.1331012 v 8.18442 q 0,0.60744 0.4316007,1.03904 0.4316011,0.4316 1.0390391,0.4316 0.607438,0 1.039038,-0.4316 0.431601,-0.4316 0.431601,-1.03904 v -8.18442 h 3.165072 v 8.18442 q 0,0.94313 -0.36766,1.79035 -0.36766,0.83123 -0.991083,1.45465 -0.623424,0.62343 -1.47064,0.99109 -0.847216,0.36766 -1.806328,0.36766 -0.8632018,0 -1.6464771,-0.30372 -0.7672901,-0.31971 -1.3907133,-0.84722 -0.607438,0.52751 -1.3747281,0.84722 -0.7672901,0.30372 -1.6624619,0.30372 z"
         style="font-style:normal;font-variant:normal;font-weight:normal;font-stretch:normal;font-size:15.98521042px;font-family:Stereofunk;-inkscape-font-specification:'Stereofunk, Normal';font-variant-ligatures:normal;font-variant-caps:normal;font-variant-numeric:normal;font-feature-settings:normal;text-align:start;writing-mode:lr-tb;text-anchor:start;fill:#ffffff;stroke-width:0.39963022"
         id="path4499" />
      <path
         d="m 19.855879,280.00875 h 5.115268 q -0.415616,-0.75131 -1.166921,-1.19889 -0.735319,-0.46357 -1.646476,-0.46357 -0.671379,0 -1.262832,0.25576 -0.591453,0.25576 -1.039039,0.70335 -0.447586,0.44759 -0.703349,1.03904 -0.255763,0.59145 -0.255763,1.26283 0,0.67138 0.255763,1.26283 0.255763,0.59146 0.703349,1.03904 0.447586,0.44759 1.039039,0.70335 0.591453,0.25576 1.262832,0.25576 h 4.955415 l -3.197042,3.16508 H 22.15775 q -1.326773,0 -2.509678,-0.49555 -1.166921,-0.51152 -2.046107,-1.37472 -0.863202,-0.87919 -1.374728,-2.04611 -0.495542,-1.18291 -0.495542,-2.50968 0,-1.32677 0.495542,-2.49369 0.511526,-1.18291 1.374728,-2.04611 0.879186,-0.87919 2.046107,-1.37473 1.182905,-0.51152 2.509678,-0.51152 1.326772,0 2.493693,0.51152 1.182905,0.49554 2.046106,1.37473 0.879187,0.8632 1.374729,2.04611 0.511526,1.16692 0.511526,2.49369 v 1.56655 h -5.530883 z"
         style="font-style:normal;font-variant:normal;font-weight:normal;font-stretch:normal;font-size:15.98521042px;font-family:Stereofunk;-inkscape-font-specification:'Stereofunk, Normal';font-variant-ligatures:normal;font-variant-caps:normal;font-variant-numeric:normal;font-feature-settings:normal;text-align:start;writing-mode:lr-tb;text-anchor:start;fill:#ffffff;stroke-width:0.39963022"
         id="path4501" />
      <path
         d="m 35.06131,284.86825 v 3.16508 h -1.278817 q -0.815245,0 -1.678447,-0.38365 -0.847216,-0.39963 -1.550565,-1.07101 -0.687364,-0.67138 -1.13495,-1.58253 -0.431601,-0.91116 -0.431601,-1.9502 v -5.91453 l 3.165072,-3.16507 v 9.0796 q 0,0.36766 0.191823,0.70335 0.191822,0.33569 0.447585,0.59145 0.271749,0.23978 0.543498,0.38365 0.271748,0.14386 0.447585,0.14386 z"
         style="font-style:normal;font-variant:normal;font-weight:normal;font-stretch:normal;font-size:15.98521042px;font-family:Stereofunk;-inkscape-font-specification:'Stereofunk, Normal';font-variant-ligatures:normal;font-variant-caps:normal;font-variant-numeric:normal;font-feature-settings:normal;text-align:start;writing-mode:lr-tb;text-anchor:start;fill:#ffffff;stroke-width:0.39963022"
         id="path4503" />
      <path
         d="m 41.46164,284.86825 v 3.16508 h -1.278817 q -0.815246,0 -1.678447,-0.38365 -0.847216,-0.39963 -1.550565,-1.07101 -0.687365,-0.67138 -1.13495,-1.58253 -0.431601,-0.91116 -0.431601,-1.9502 v -5.91453 l 3.165072,-3.16507 v 9.0796 q 0,0.36766 0.191822,0.70335 0.191823,0.33569 0.447586,0.59145 0.271749,0.23978 0.543497,0.38365 0.271749,0.14386 0.447586,0.14386 z"
         style="font-style:normal;font-variant:normal;font-weight:normal;font-stretch:normal;font-size:15.98521042px;font-family:Stereofunk;-inkscape-font-specification:'Stereofunk, Normal';font-variant-ligatures:normal;font-variant-caps:normal;font-variant-numeric:normal;font-feature-settings:normal;text-align:start;writing-mode:lr-tb;text-anchor:start;fill:#ffffff;stroke-width:0.39963022"
         id="path4505" />
    </g>
    <g
       aria-label="Talent"
       style="font-style:normal;font-variant:normal;font-weight:normal;font-stretch:normal;font-size:10.58333302px;line-height:1.25;font-family:Stereofunk;-inkscape-font-specification:'Stereofunk, Normal';font-variant-ligatures:normal;font-variant-caps:normal;font-variant-numeric:normal;font-feature-settings:normal;text-align:start;letter-spacing:0px;word-spacing:0px;writing-mode:lr-tb;text-anchor:start;fill:#ffffff;fill-opacity:1;stroke:none;stroke-width:0.26458332"
       id="text4491">
      <path
         d="M 5.2311205,290.62883 H 4.1516206 V 297 h -2.0955 v -6.37117 H 0.02412068 v -2.0955 H 7.3266205 Z"
         style="font-style:normal;font-variant:normal;font-weight:normal;font-stretch:normal;font-size:10.58333302px;font-family:Stereofunk;-inkscape-font-specification:'Stereofunk, Normal';font-variant-ligatures:normal;font-variant-caps:normal;font-variant-numeric:normal;font-feature-settings:normal;text-align:start;writing-mode:lr-tb;text-anchor:start;fill:#ffffff;stroke-width:0.26458332"
         id="path4486" />
      <path
         d="m 9.6577649,288.53333 q 0.8784171,0 1.6510001,0.33867 0.772583,0.32808 1.344083,0.91017 0.5715,0.5715 0.899583,1.34408 0.338667,0.77258 0.338667,1.64042 V 297 h -2.0955 v -4.23333 q 0,-0.43392 -0.169333,-0.81492 -0.169333,-0.39158 -0.455083,-0.67733 -0.28575,-0.28575 -0.677334,-0.45509 Q 10.102265,290.65 9.6577649,290.65 q -0.4339166,0 -0.8255,0.16933 -0.381,0.16934 -0.6667499,0.45509 -0.28575,0.28575 -0.4550834,0.67733 -0.1693333,0.381 -0.1693333,0.81492 0,0.43391 0.1693333,0.8255 0.1693334,0.381 0.4550834,0.66675 0.2857499,0.28575 0.6667499,0.45508 0.3915834,0.16933 0.8255,0.16933 H 11.774432 L 9.6577649,297 q -0.8784166,-0.0106 -1.6509999,-0.33867 -0.762,-0.33866 -1.3335,-0.91016 -0.5715,-0.5715 -0.8995833,-1.3335 -0.3280833,-0.77259 -0.3280833,-1.651 0,-0.86784 0.3280833,-1.64042 0.3280833,-0.77258 0.8995833,-1.34408 0.5715,-0.58209 1.3335,-0.91017 0.7725833,-0.33867 1.6509999,-0.33867 z"
         style="font-style:normal;font-variant:normal;font-weight:normal;font-stretch:normal;font-size:10.58333302px;font-family:Stereofunk;-inkscape-font-specification:'Stereofunk, Normal';font-variant-ligatures:normal;font-variant-caps:normal;font-variant-numeric:normal;font-feature-settings:normal;text-align:start;writing-mode:lr-tb;text-anchor:start;fill:#ffffff;stroke-width:0.26458332"
         id="path4488" />
      <path
         d="M 18.171063,294.9045 V 297 h -0.846666 q -0.53975,0 -1.11125,-0.254 -0.560917,-0.26458 -1.026584,-0.70908 -0.455083,-0.4445 -0.751416,-1.04775 -0.28575,-0.60325 -0.28575,-1.29117 v -3.91583 l 2.0955,-2.0955 v 6.01133 q 0,0.24342 0.127,0.46567 0.127,0.22225 0.296333,0.39158 0.179917,0.15875 0.359833,0.254 0.179917,0.0952 0.296334,0.0952 z"
         style="font-style:normal;font-variant:normal;font-weight:normal;font-stretch:normal;font-size:10.58333302px;font-family:Stereofunk;-inkscape-font-specification:'Stereofunk, Normal';font-variant-ligatures:normal;font-variant-caps:normal;font-variant-numeric:normal;font-feature-settings:normal;text-align:start;writing-mode:lr-tb;text-anchor:start;fill:#ffffff;stroke-width:0.26458332"
         id="path4490" />
      <path
         d="m 20.733718,291.68717 h 3.386667 q -0.275167,-0.49742 -0.772583,-0.79375 -0.486834,-0.30692 -1.090084,-0.30692 -0.4445,0 -0.836083,0.16933 -0.391583,0.16934 -0.687917,0.46567 -0.296333,0.29633 -0.465666,0.68792 -0.169334,0.39158 -0.169334,0.83608 0,0.4445 0.169334,0.83608 0.169333,0.39159 0.465666,0.68792 0.296334,0.29633 0.687917,0.46567 0.391583,0.16933 0.836083,0.16933 h 3.280833 L 23.421885,297 h -1.164167 q -0.878416,0 -1.661583,-0.32808 -0.772583,-0.33867 -1.354667,-0.91017 -0.5715,-0.58208 -0.910166,-1.35467 -0.328084,-0.78316 -0.328084,-1.66158 0,-0.87842 0.328084,-1.651 0.338666,-0.78317 0.910166,-1.35467 0.582084,-0.58208 1.354667,-0.91016 0.783167,-0.33867 1.661583,-0.33867 0.878417,0 1.651,0.33867 0.783167,0.32808 1.354667,0.91016 0.582083,0.5715 0.910166,1.35467 0.338667,0.77258 0.338667,1.651 v 1.03717 h -3.661833 z"
         style="font-style:normal;font-variant:normal;font-weight:normal;font-stretch:normal;font-size:10.58333302px;font-family:Stereofunk;-inkscape-font-specification:'Stereofunk, Normal';font-variant-ligatures:normal;font-variant-caps:normal;font-variant-numeric:normal;font-feature-settings:normal;text-align:start;writing-mode:lr-tb;text-anchor:start;fill:#ffffff;stroke-width:0.26458332"
         id="path4492" />
      <path
         d="m 34.621367,297 h -2.074333 v -4.55083 q 0,-0.381 -0.148167,-0.70909 -0.137583,-0.33866 -0.391583,-0.58208 -0.243417,-0.24342 -0.582083,-0.381 -0.328084,-0.14817 -0.6985,-0.14817 -0.381,0 -0.719667,0.14817 -0.328083,0.13758 -0.582083,0.381 -0.254,0.24342 -0.402167,0.58208 -0.137583,0.32809 -0.137583,0.70909 V 297 h -2.074334 v -4.55083 q 0,-0.80434 0.306917,-1.51342 0.306917,-0.71967 0.836083,-1.24883 0.53975,-0.53975 1.248834,-0.84667 0.709083,-0.30692 1.524,-0.30692 0.804333,0 1.513416,0.30692 0.719667,0.30692 1.23825,0.84667 0.529167,0.52916 0.836084,1.24883 0.306916,0.70908 0.306916,1.51342 z"
         style="font-style:normal;font-variant:normal;font-weight:normal;font-stretch:normal;font-size:10.58333302px;font-family:Stereofunk;-inkscape-font-specification:'Stereofunk, Normal';font-variant-ligatures:normal;font-variant-caps:normal;font-variant-numeric:normal;font-feature-settings:normal;text-align:start;writing-mode:lr-tb;text-anchor:start;fill:#ffffff;stroke-width:0.26458332"
         id="path4494" />
      <path
         d="m 39.378906,290.62883 h -1.0795 V 297 h -2.0955 v -6.37117 h -2.032 v -2.0955 h 7.3025 z"
         style="font-style:normal;font-variant:normal;font-weight:normal;font-stretch:normal;font-size:10.58333302px;font-family:Stereofunk;-inkscape-font-specification:'Stereofunk, Normal';font-variant-ligatures:normal;font-variant-caps:normal;font-variant-numeric:normal;font-feature-settings:normal;text-align:start;writing-mode:lr-tb;text-anchor:start;fill:#ffffff;stroke-width:0.26458332"
         id="path4496" />
    </g>
  </g>
</svg>
